<svg style="background:none" version="1.1" id="Layer_1" xmlns="http://www.w3.org/2000/svg" xmlns:xlink="http://www.w3.org/1999/xlink" x="0px" y="0px"
	 width="100%" viewBox="0 0 1024 560" enable-background="new 0 0 1024 560" xml:space="preserve">
<path fill="#FFFFFF" opacity="1.000000" stroke="none" 
	d="
M334.663696,246.151215 
	C368.117401,260.743805 365.747986,300.049866 346.153473,316.520386 
	C334.748169,326.107330 321.034424,330.137390 306.512817,331.230774 
	C275.746704,333.547363 244.913712,331.751404 214.114059,332.230591 
	C211.648911,332.268951 209.247375,331.968750 208.941025,328.845947 
	C208.643341,325.811584 210.632614,325.078308 213.232635,324.525452 
	C221.511337,322.765106 224.667587,319.195068 224.691284,310.690247 
	C224.813339,266.877930 224.825012,223.064987 224.720993,179.252625 
	C224.700256,170.515274 221.857681,167.381210 213.125259,164.929932 
	C210.800888,164.277451 208.455765,163.698547 208.802475,160.502289 
	C209.145935,157.335678 211.528320,157.041016 213.954834,157.065765 
	C244.923096,157.381607 275.917328,155.571579 306.855347,157.889786 
	C316.196503,158.589722 325.221893,161.023590 333.436340,165.843628 
	C346.903046,173.745560 353.385834,185.689865 352.920471,201.093689 
	C352.417328,217.749542 343.836670,229.222778 328.687286,235.824173 
	C325.083313,237.394608 321.284210,238.517197 316.197266,240.339172 
	C323.124939,242.404984 328.953735,243.539322 334.663696,246.151215 
M311.653717,273.927887 
	C309.082031,252.994797 295.079102,244.968842 275.037048,245.932861 
	C272.331604,246.062988 271.178375,247.276382 271.187714,249.967087 
	C271.265564,272.432098 271.295441,294.897278 271.350800,317.362396 
	C271.357056,319.890839 272.118439,321.975342 274.874207,322.699615 
	C284.576385,325.249664 301.734711,323.746613 307.916870,309.125397 
	C312.621857,297.997772 312.508087,286.474762 311.653717,273.927887 
M273.124054,236.655106 
	C275.449677,236.713715 277.777618,236.870560 280.100494,236.814758 
	C293.707336,236.487915 301.419220,230.179932 304.206604,216.827713 
	C306.341614,206.600388 306.299957,196.330093 303.817535,186.142609 
	C300.468719,172.399551 291.459076,165.793137 277.285309,166.379562 
	C273.068878,166.553986 271.107117,167.952148 271.161316,172.660629 
	C271.385559,192.139755 271.232697,211.623108 271.262634,231.104843 
	C271.265350,232.877380 270.797699,234.815887 273.124054,236.655106 
z"/>
<path fill="#FFFFFF" opacity="1.000000" stroke="none" 
	d="
M813.921997,324.180176 
	C816.812622,324.934509 818.643372,326.159760 818.109192,329.146881 
	C817.606079,331.960327 815.342224,332.200073 813.119141,332.203278 
	C791.961121,332.233673 770.803162,332.226990 749.645142,332.232239 
	C747.702820,332.232727 745.886169,331.925690 745.339722,329.686066 
	C744.825562,327.578857 745.802429,326.070587 747.723877,325.309906 
	C752.542358,323.402191 752.202271,320.077942 750.167969,316.408417 
	C745.147644,307.352570 738.591736,299.321686 732.868835,290.733124 
	C731.668579,288.931854 730.421570,287.158752 729.126099,285.424957 
	C728.444702,284.513000 727.722412,283.386017 726.307922,283.900543 
	C725.105469,284.337982 724.412170,285.395477 724.430298,286.619995 
	C724.588135,297.250702 723.151245,307.953918 725.557983,318.482819 
	C726.375244,322.057953 728.919861,324.185822 732.610474,324.646912 
	C735.011475,324.946899 736.945251,325.677002 736.774475,328.523956 
	C736.594116,331.531097 734.547363,332.251495 731.896973,332.248413 
	C711.905090,332.225372 691.913269,332.235046 671.921387,332.249908 
	C669.503052,332.251709 667.542786,331.605499 667.293457,328.837463 
	C667.080322,326.471649 668.364502,325.344513 670.656555,324.689026 
	C677.942566,322.605438 679.774902,320.154358 679.803101,312.005554 
	C679.884277,288.515381 679.840088,265.024780 679.821533,241.534348 
	C679.806030,221.875656 679.791992,202.216843 679.708496,182.558380 
	C679.666626,172.710938 678.424744,170.958557 669.243958,167.499069 
	C667.385071,166.798599 665.752075,166.052597 665.890503,163.800156 
	C666.064697,160.965424 668.371277,160.353928 670.533813,160.198578 
	C678.855530,159.600800 687.070435,158.283295 695.193665,156.495850 
	C702.343994,154.922501 709.385803,152.894394 716.272156,150.340836 
	C723.719238,147.579346 724.302002,148.024490 724.302429,155.768463 
	C724.304504,192.420273 724.299866,229.072067 724.297607,265.723877 
	C724.297485,267.332642 724.297607,268.941406 724.297607,270.523987 
	C725.168579,270.523987 725.610535,270.660309 725.773865,270.504517 
	C736.140991,260.617310 746.127991,250.325027 755.376831,239.416412 
	C762.361755,231.177887 759.666504,223.983063 749.280762,220.816071 
	C747.103149,220.152023 745.625122,219.133713 745.859619,216.678986 
	C746.118713,213.965347 748.182068,213.765488 750.272278,213.762863 
	C765.932556,213.743225 781.592896,213.733124 797.253174,213.734497 
	C799.523376,213.734711 801.754395,213.972244 802.046631,216.894409 
	C802.334229,219.769669 800.258240,220.730621 798.021790,221.023010 
	C780.582581,223.302948 770.588318,236.371292 759.363953,247.628647 
	C756.737976,250.262344 758.987366,252.636200 760.421448,254.748230 
	C769.777832,268.528717 779.188965,282.272400 788.653748,295.978729 
	C793.477966,302.964966 798.105652,310.101440 803.761353,316.480408 
	C806.553101,319.629120 809.631897,322.381226 813.921997,324.180176 
z"/>
<path fill="#FFFFFF" opacity="1.000000" stroke="none" 
	d="
M510.579041,213.174149 
	C526.147949,217.179581 537.495605,225.043335 539.856934,241.796570 
	C540.457336,246.056808 540.200317,250.439758 540.309448,254.767029 
	C540.792419,273.913879 539.461487,293.082672 541.051880,312.218353 
	C541.516846,317.812897 543.742432,321.795319 549.754150,322.683472 
	C551.435120,322.931824 552.592590,323.783600 552.828918,325.468109 
	C553.110352,327.473694 551.769958,328.625458 550.133423,329.186462 
	C537.506409,333.514709 524.736328,335.939545 511.484680,331.989288 
	C505.466522,330.195312 501.857056,325.728790 499.203217,321.042450 
	C497.409515,320.410767 496.717865,321.230743 495.961975,321.853302 
	C484.535156,331.264496 471.287842,334.520905 456.768982,333.390015 
	C443.495789,332.356140 433.829956,324.778595 430.257202,312.693878 
	C426.361176,299.515625 430.688446,285.427460 440.957214,277.653625 
	C448.491699,271.949677 457.406372,269.814911 466.334961,267.699280 
	C473.457275,266.011688 480.648590,264.610626 487.491699,261.873688 
	C495.135895,258.816315 499.338837,253.683594 498.723358,245.044327 
	C498.404785,240.572311 498.644073,236.085709 497.858307,231.609436 
	C496.926514,226.301239 494.114563,222.728226 489.073761,221.121506 
	C483.519135,219.350998 477.843689,219.447571 472.413177,221.575058 
	C467.788452,223.386856 467.302124,226.285950 470.629700,229.937820 
	C477.214142,237.163940 478.090607,245.237930 473.149170,253.147141 
	C468.339478,260.845490 457.486572,264.355591 447.876556,261.320923 
	C439.272461,258.603912 434.039246,251.071976 434.369537,241.943954 
	C434.777039,230.680756 440.958862,223.190155 450.609650,218.643433 
	C469.717255,209.641312 489.752472,208.833420 510.579041,213.174149 
M498.600800,288.498047 
	C498.573761,283.516998 498.726471,278.526672 498.469727,273.557495 
	C498.206726,268.467529 496.690125,267.708191 492.304047,270.040802 
	C490.545807,270.975861 488.827576,271.986023 487.088409,272.957092 
	C475.198303,279.595947 470.023712,290.641632 472.610596,303.864990 
	C474.308380,312.543579 478.569092,316.204437 486.411682,315.723022 
	C493.463654,315.290161 498.223328,309.974304 498.542938,301.945862 
	C498.707916,297.800964 498.591125,293.644867 498.600800,288.498047 
z"/>
<path fill="#FFFFFF" opacity="1.000000" stroke="none" 
	d="
M666.412720,239.807037 
	C667.736633,250.247437 664.860291,258.772522 656.697266,264.914001 
	C649.442627,270.372131 641.282227,270.908325 633.048767,267.336273 
	C618.366699,260.966522 615.531738,240.257477 627.487427,228.111938 
	C628.908325,226.668533 631.879028,225.812866 631.071411,223.246811 
	C630.216064,220.528915 627.232422,220.423096 624.789917,219.963928 
	C615.335754,218.186539 605.441101,222.878021 601.573608,232.440781 
	C594.140381,250.820435 593.454224,269.599701 602.988098,287.434021 
	C614.483765,308.938232 644.216431,311.371857 661.871216,292.907562 
	C663.707031,290.987610 665.021545,286.682892 668.828125,289.193390 
	C672.550659,291.648529 669.796509,294.999481 668.705017,297.705780 
	C658.529541,322.935455 633.684875,337.096893 606.605347,333.720184 
	C582.503296,330.714783 564.860291,318.995239 556.630859,295.825287 
	C548.386658,272.613647 551.844910,250.630615 568.166626,231.766006 
	C580.288025,217.756195 596.890137,212.379593 614.849487,210.923920 
	C627.389099,209.907562 639.433167,212.057053 650.559631,218.193451 
	C658.999939,222.848404 664.854797,229.522537 666.412720,239.807037 
z"/>
<path fill="#FFFFFF" opacity="1.000000" stroke="none" 
	d="
M424.284485,324.768433 
	C427.243073,325.252991 428.557892,326.717194 428.134064,329.345093 
	C427.718384,331.922455 425.659546,332.214630 423.574738,332.215057 
	C403.589417,332.219208 383.604126,332.202789 363.618805,332.187836 
	C361.203156,332.186005 359.263763,331.413208 359.036346,328.677246 
	C358.857178,326.522156 360.127197,325.463470 362.158661,324.833344 
	C369.443390,322.573792 371.522858,319.917603 371.627716,312.317657 
	C371.779358,301.327362 371.752289,290.334167 371.751251,279.342224 
	C371.748322,248.531219 371.721771,217.720200 371.696960,186.909195 
	C371.695099,184.577972 371.756348,182.237274 371.576996,179.917313 
	C371.013031,172.623581 369.256958,170.428635 362.224335,168.233887 
	C360.031311,167.549469 357.937469,166.797089 358.133759,164.040268 
	C358.332428,161.249985 360.510193,160.846588 362.806488,160.574951 
	C378.897034,158.671524 394.555695,154.951019 409.829437,149.519058 
	C414.873932,147.725037 416.207367,149.087616 416.203491,155.314224 
	C416.172394,205.111267 416.136017,254.908310 416.120026,304.705353 
	C416.118958,308.034821 416.013885,311.395721 416.414520,314.686310 
	C416.980560,319.336090 418.553558,323.497070 424.284485,324.768433 
z"/>
<path fill="#FFFFFF" opacity="1.000000" stroke="none" 
	d="
M459.037994,442.236420 
	C454.174438,443.031921 449.537201,443.188293 445.349823,444.641205 
	C433.457703,448.767609 425.379852,441.173248 416.669128,435.763428 
	C413.688751,433.912476 414.750854,431.158752 418.884583,429.882507 
	C426.069092,427.664307 433.545197,426.829681 440.952545,425.750519 
	C489.373077,418.696075 538.095825,416.807556 586.942932,417.766785 
	C625.588806,418.525696 664.130554,420.885376 702.244202,427.858215 
	C704.734253,428.313812 707.618469,428.260254 709.561646,430.968719 
	C706.676941,433.303436 703.438416,432.224915 700.516846,432.023682 
	C666.087219,429.652374 631.615784,428.606689 597.122009,429.425903 
	C566.652344,430.149567 536.249878,432.115540 505.968719,435.852966 
	C490.438660,437.769775 474.905914,439.608337 459.037994,442.236420 
z"/>
<path fill="#FFFFFF" opacity="1.000000" stroke="none" 
	d="
M651.013184,378.245239 
	C646.223511,374.935394 643.064453,375.875702 642.121521,381.030853 
	C640.766785,388.437683 641.218323,395.937531 641.958984,403.420990 
	C642.221375,406.071655 644.985474,406.838074 646.156189,409.998566 
	C638.158386,411.617523 630.737427,411.327789 621.600037,409.792572 
	C628.297913,405.704987 627.011658,400.311249 627.015747,395.304108 
	C627.019714,390.473633 626.952148,385.638000 626.716187,380.814423 
	C626.591125,378.258972 625.317383,376.328461 622.472473,376.109924 
	C619.713745,375.897980 617.923279,377.360474 617.399231,379.933502 
	C615.788147,387.844086 616.164856,395.825287 616.895691,403.801208 
	C617.116577,406.211212 619.804199,406.866577 621.167908,409.842010 
	C613.216797,411.544464 605.850342,411.192444 599.298096,410.336670 
	C603.281555,396.615936 603.799133,383.900513 598.512390,370.407349 
	C603.494385,369.565735 608.791748,368.572906 614.122192,367.811340 
	C616.829590,367.424561 616.467529,370.628784 618.189392,371.840485 
	C625.919250,366.758514 633.643311,364.654816 640.807007,373.180542 
	C644.668640,370.206024 648.496277,367.654724 653.485840,367.640686 
	C661.251770,367.618866 666.078857,372.039886 666.271912,379.807648 
	C666.404297,385.137573 666.281616,390.473328 666.347351,395.805573 
	C666.406982,400.648651 664.985718,406.025818 671.309937,408.522461 
	C667.210938,411.809509 652.495850,412.032166 647.310425,408.997620 
	C653.310669,405.713928 651.899292,400.126770 651.813110,395.029022 
	C651.720459,389.551025 652.381226,384.036255 651.013184,378.245239 
z"/>
<path fill="#FFFFFF" opacity="1.000000" stroke="none" 
	d="
M331.417389,367.415710 
	C335.044830,366.737549 337.928040,368.537598 341.366821,368.859314 
	C342.524506,362.734924 343.782013,356.840698 336.173523,354.582489 
	C336.404144,352.232941 337.578796,352.009094 338.729614,351.784851 
	C342.799713,350.991638 346.940887,350.459412 350.924988,349.357574 
	C354.976624,348.237030 356.391052,349.468109 356.361511,353.575439 
	C356.255096,368.372498 356.372589,383.171143 356.293457,397.968536 
	C356.271484,402.081573 356.262878,406.020905 360.757751,407.816376 
	C360.549805,410.242371 358.922058,410.315491 357.460480,410.341492 
	C351.968964,410.439117 346.282471,412.190033 341.265259,408.185150 
	C340.040619,407.207581 338.822021,408.689606 337.687500,409.242310 
	C329.242523,413.356506 320.601990,410.670532 316.720764,402.307312 
	C312.869476,394.008667 313.159546,385.484467 316.895203,377.213104 
	C319.588562,371.249664 324.689270,368.369263 331.417389,367.415710 
M329.176666,390.333344 
	C329.148834,393.684296 329.495819,396.969971 330.873749,400.076019 
	C332.014526,402.647491 333.977234,403.957184 336.796234,403.677063 
	C339.717316,403.386810 341.354095,401.431152 341.576447,398.743652 
	C342.138763,391.947052 342.163544,385.111786 341.504883,378.325409 
	C341.237030,375.565613 339.526245,373.146301 336.566742,372.737640 
	C333.473450,372.310547 331.749695,374.569611 330.611664,377.123840 
	C328.862366,381.049805 329.242889,385.262207 329.176666,390.333344 
z"/>
<path fill="#FFFFFF" opacity="1.000000" stroke="none" 
	d="
M489.252380,171.124313 
	C489.255188,174.599014 489.323853,177.599304 489.234528,180.594849 
	C489.115051,184.601013 488.871216,188.604202 494.383331,191.142426 
	C489.266632,192.694122 485.416718,192.623383 481.327545,191.506180 
	C486.802216,183.314285 487.062744,157.014099 481.568115,149.223465 
	C486.554749,148.280396 491.294495,148.615494 495.986847,148.909714 
	C498.188599,149.047745 498.573608,151.258713 499.163055,152.961807 
	C501.657959,160.170013 504.111115,167.392685 506.896729,175.537674 
	C510.164795,170.076141 511.209625,164.726166 512.864929,159.665833 
	C516.732178,147.843750 517.858154,147.045105 530.338989,148.893616 
	C530.779358,148.958847 531.178406,149.303696 531.598145,149.518951 
	C527.046631,158.161346 526.976257,183.387390 531.929993,191.871475 
	C525.878662,192.490005 520.303711,192.518921 513.623901,191.742279 
	C518.114136,187.099030 517.670654,182.238785 517.387817,177.284912 
	C517.103943,172.313843 517.325378,167.313934 516.848022,162.258530 
	C512.988281,169.665527 511.096008,177.672501 508.459595,185.412109 
	C508.084381,186.513763 507.783386,187.640564 507.416595,188.745285 
	C506.729645,190.814331 505.526947,192.206070 503.118042,192.205292 
	C500.823029,192.204544 499.903839,190.641876 499.282440,188.870529 
	C496.969147,182.276611 494.752228,175.648941 492.459564,169.047714 
	C491.753876,167.015808 490.921875,165.027771 489.247833,163.060822 
	C489.247833,165.589813 489.247833,168.118790 489.252380,171.124313 
z"/>
<path fill="#FFFFFF" opacity="1.000000" stroke="none" 
	d="
M461.208160,356.051575 
	C457.909454,357.709686 456.868622,360.588715 455.885895,363.404236 
	C451.009186,377.376099 446.153717,391.356018 441.427826,405.379303 
	C440.311310,408.692383 438.844635,410.929260 434.891113,410.941345 
	C430.933807,410.953430 429.985687,408.281403 428.940247,405.373352 
	C423.989044,391.601105 418.992157,377.845245 414.011200,364.083649 
	C412.869781,360.929993 411.662445,357.834381 408.520325,356.026917 
	C407.466125,355.420471 406.611542,354.542725 407.043549,353.190186 
	C407.396057,352.086548 408.443481,351.801544 409.464203,351.798615 
	C417.117645,351.776611 424.771362,351.769958 432.424561,351.820618 
	C433.620178,351.828522 434.736084,352.249084 434.894073,353.735596 
	C434.687744,355.557892 433.042969,355.470398 431.907562,355.900818 
	C429.582947,356.782074 428.741028,358.537689 429.472626,360.654053 
	C432.981964,370.805573 436.655823,380.900269 440.271210,391.015137 
	C440.722809,391.014893 441.174438,391.014618 441.626068,391.014343 
	C444.960144,381.181671 448.440155,371.395111 451.569855,361.497803 
	C453.259338,356.155029 447.709198,356.342712 445.317810,354.424744 
	C445.062103,352.603851 446.083435,351.939728 447.300293,351.908630 
	C451.954773,351.789581 456.613281,351.790436 461.269806,351.820251 
	C462.442932,351.827728 463.706543,352.075745 463.817413,353.610931 
	C463.928528,355.150513 462.497345,355.315247 461.208160,356.051575 
z"/>
<path fill="#FFFFFF" opacity="1.000000" stroke="none" 
	d="
M392.350098,370.393524 
	C396.847595,372.868469 398.081451,376.719147 398.140808,381.086578 
	C398.222137,387.073090 398.139954,393.061646 398.170502,399.049103 
	C398.182343,401.367981 398.213470,403.446014 400.751099,405.007782 
	C403.538239,406.723083 401.491089,408.539948 399.757202,409.502075 
	C395.376770,411.932831 390.634674,412.058319 386.454437,409.441559 
	C384.183899,408.020203 382.719635,408.098724 380.707977,409.325378 
	C377.435486,411.320801 373.804474,411.680847 370.100128,411.087402 
	C364.874786,410.250305 361.024292,406.756531 360.259247,401.809875 
	C359.487671,396.821136 361.160736,392.628204 365.396851,389.669098 
	C369.462708,386.828888 374.283234,386.070435 378.946716,384.901276 
	C381.070557,384.368835 383.349945,383.991760 383.618317,381.221924 
	C383.877655,378.545776 383.919769,375.831848 381.868408,373.704620 
	C380.466980,372.251343 378.648651,372.007263 376.780701,372.563599 
	C374.553375,373.227020 374.939545,374.953430 375.249176,376.648804 
	C375.915497,380.296539 374.651917,382.968292 370.953888,383.913788 
	C368.013824,384.665466 364.871948,385.072998 362.835846,381.999481 
	C360.588074,378.606476 361.871185,375.415436 364.371857,372.976044 
	C370.639221,366.862305 378.506409,367.146393 386.388794,368.242584 
	C388.317200,368.510803 390.141449,369.527710 392.350098,370.393524 
M381.004944,403.511230 
	C386.270111,399.231293 382.833313,393.924011 383.548187,388.846741 
	C376.598755,390.201660 374.278168,392.551575 374.327820,397.530548 
	C374.366821,401.443146 375.845581,403.991791 381.004944,403.511230 
z"/>
<path fill="#FFFFFF" opacity="1.000000" stroke="none" 
	d="
M487.413757,401.588318 
	C488.662354,400.468994 489.658966,399.585419 490.522919,398.587097 
	C491.508118,397.448608 492.365265,395.914001 494.124634,397.218079 
	C495.667511,398.361694 495.156860,399.856140 494.345367,401.228271 
	C490.391998,407.913116 484.519867,411.470734 476.763977,411.680481 
	C469.122375,411.887146 462.414185,409.511414 458.527832,402.612549 
	C453.788574,394.199738 453.913574,385.325165 458.650970,376.923706 
	C463.148956,368.946777 470.887329,367.189972 479.293304,367.792053 
	C485.465363,368.234161 490.496277,370.984161 493.228210,376.823364 
	C496.463623,383.738586 493.544891,389.180511 485.959778,390.243774 
	C481.061066,390.930450 476.098785,391.163940 471.240875,391.593750 
	C469.090454,399.017273 479.704712,407.387024 487.413757,401.588318 
M472.199280,386.602997 
	C474.359924,386.722534 476.512848,386.805908 478.517517,385.748810 
	C481.722412,384.058960 482.914368,379.325348 480.906403,375.730682 
	C479.493683,373.201508 477.444244,371.526947 474.383301,372.807007 
	C470.442535,374.455078 468.770447,382.688660 472.199280,386.602997 
z"/>
<path fill="#FFFFFF" opacity="1.000000" stroke="none" 
	d="
M597.532715,381.318298 
	C596.875671,387.154114 594.571777,389.601562 589.049500,390.253601 
	C583.990234,390.850922 578.897705,391.166992 573.499817,391.634705 
	C574.084534,396.397369 575.187134,400.324127 579.382568,402.365540 
	C586.508545,405.832794 591.255310,401.398407 595.746521,396.542511 
	C598.573792,399.311066 596.995178,401.459869 595.677124,403.469269 
	C589.467896,412.935272 573.323242,414.322784 564.643250,406.184814 
	C557.381470,399.376465 555.910278,386.415680 561.333130,377.023407 
	C565.963867,369.002930 576.462402,365.542419 586.353577,368.746246 
	C592.393188,370.702515 596.417175,374.465546 597.532715,381.318298 
M574.225525,386.162445 
	C577.685791,387.244995 580.896851,386.810486 583.254395,383.941772 
	C585.231628,381.535736 585.017517,378.704437 583.760925,375.948273 
	C582.810120,373.862701 581.482849,372.261566 578.922913,372.353699 
	C576.589478,372.437653 575.329773,373.979309 574.582947,375.907257 
	C573.373108,379.030334 572.645447,382.250336 574.225525,386.162445 
z"/>
<path fill="#FFFFFF" opacity="1.000000" stroke="none" 
	d="
M535.246338,190.848297 
	C530.749695,185.009796 531.585083,179.995895 537.310791,176.337967 
	C539.889587,174.690445 542.812866,173.972748 545.738220,173.386124 
	C549.377319,172.656387 550.206604,170.373215 549.592041,167.147858 
	C549.225159,165.222412 548.361938,163.477173 546.125427,163.573822 
	C543.723450,163.677628 543.231445,165.267105 543.723999,167.467789 
	C544.364136,170.327957 542.526672,171.881363 540.236572,172.734650 
	C538.214233,173.488205 536.208374,172.790359 534.817871,171.156891 
	C533.041382,169.069962 533.519226,166.800781 534.902100,164.699417 
	C537.662903,160.504349 546.529724,158.346329 552.818115,160.281342 
	C558.168884,161.927811 560.231628,165.069626 560.334534,171.691681 
	C560.396545,175.683472 560.366760,179.681595 560.599060,183.664001 
	C560.740601,186.088837 561.674500,188.796570 564.396912,188.750015 
	C567.577454,188.695648 566.614380,185.598480 566.679688,183.637573 
	C566.812561,179.648315 566.700684,175.650406 566.666809,171.656250 
	C566.641479,168.672272 567.240784,165.451797 562.081543,163.789291 
	C566.932922,161.147827 570.708130,160.282806 574.529480,160.016373 
	C576.913757,159.850143 577.266663,162.025543 577.279968,163.959625 
	C577.317810,169.451630 577.422424,174.946167 577.300049,180.435242 
	C577.213257,184.329315 577.302490,188.050079 581.853943,191.015640 
	C576.880066,193.101105 572.546265,192.348969 568.459595,192.153839 
	C564.279846,191.954269 559.826599,193.694870 556.246399,192.611816 
	C551.141663,191.067535 546.811157,191.451385 542.044556,192.999817 
	C539.760925,193.741653 537.490784,192.515808 535.246338,190.848297 
M547.179932,176.843552 
	C543.816528,178.435699 542.721863,181.257324 543.448425,184.658173 
	C544.021057,187.338623 545.875793,188.221695 548.248657,186.489029 
	C550.609253,184.765335 550.302124,179.088684 547.179932,176.843552 
z"/>
<path fill="#FFFFFF" opacity="1.000000" stroke="none" 
	d="
M669.678467,387.219666 
	C671.442993,371.588287 686.544983,363.112732 700.359314,369.571136 
	C703.434875,371.009003 706.031128,373.008881 707.625916,376.127075 
	C711.509399,383.720062 708.718750,389.001923 700.280518,390.469360 
	C695.500610,391.300598 690.694702,390.902649 685.952759,391.111176 
	C685.110779,396.501862 687.173462,400.497742 691.694458,402.524445 
	C696.524109,404.689514 700.523560,403.675415 704.209839,399.581024 
	C705.264282,398.409912 705.818237,395.430603 708.173645,397.118744 
	C710.325073,398.660645 708.658569,400.772583 707.704895,402.446350 
	C703.626221,409.604187 694.718018,412.990875 685.498535,410.971375 
	C677.012878,409.112640 670.410583,401.684631 669.744263,393.160156 
	C669.602112,391.340820 669.689087,389.503632 669.678467,387.219666 
M689.135437,372.537231 
	C685.064514,375.340607 685.133057,379.845001 684.511353,384.021820 
	C684.328064,385.253296 685.080078,386.316193 686.434753,386.499878 
	C689.666077,386.937927 692.786377,386.554993 695.186462,384.138031 
	C697.318848,381.990509 696.980957,379.314026 696.117920,376.704407 
	C695.129089,373.714539 693.270081,371.897888 689.135437,372.537231 
z"/>
<path fill="#FFFFFF" opacity="1.000000" stroke="none" 
	d="
M510.396118,372.373413 
	C506.889435,376.291382 507.062531,378.532349 511.096985,380.742950 
	C513.853149,382.253174 516.885681,383.252106 519.765564,384.544708 
	C527.807617,388.154327 531.516785,394.054352 529.997925,400.745728 
	C528.503784,407.328125 522.471069,411.338287 513.864075,411.240387 
	C511.396606,411.212311 508.929321,410.689667 506.473572,410.317017 
	C505.329559,410.143463 504.209961,409.799744 503.085236,409.510040 
	C501.060944,408.988647 498.191406,412.748383 497.134155,409.158539 
	C496.033630,405.421631 496.073425,401.186005 497.178406,397.334106 
	C497.798309,395.173187 499.769073,395.415985 500.977600,397.142609 
	C501.915863,398.483124 502.382294,400.144440 503.153534,401.613220 
	C505.542725,406.163086 510.088440,408.067596 514.948975,406.637939 
	C516.665039,406.133179 517.951416,405.142456 518.436035,403.402863 
	C518.968323,401.492065 517.918945,400.086761 516.412109,399.247009 
	C513.223755,397.470184 509.927460,395.885651 506.661407,394.250397 
	C503.342194,392.588470 500.315948,390.589447 498.425476,387.257233 
	C493.674469,378.883026 498.494690,369.191772 508.205872,367.809479 
	C511.831665,367.293396 515.498352,367.327484 519.077881,368.457306 
	C520.150757,368.795898 521.395935,369.662598 522.414001,368.882080 
	C527.463745,365.010559 527.363647,369.268555 527.822327,372.319580 
	C528.091492,374.110046 528.015015,375.975159 527.899414,377.794312 
	C527.786438,379.572510 527.906311,381.752777 525.481750,382.114136 
	C523.252808,382.446320 522.992554,380.418060 522.311401,378.937378 
	C519.483276,372.790009 516.832031,371.278931 510.396118,372.373413 
z"/>
<path fill="#FFFFFF" opacity="1.000000" stroke="none" 
	d="
M534.567627,368.538330 
	C539.931152,366.085419 542.684143,361.877838 544.489136,356.862885 
	C544.988525,355.475372 545.448914,353.749054 547.433838,354.150269 
	C549.334167,354.534393 549.244446,356.283417 549.292175,357.769958 
	C549.345459,359.430145 549.453674,361.107544 549.286926,362.752014 
	C548.877808,366.786469 549.976685,369.237457 554.660583,368.753571 
	C556.063293,368.608643 557.997986,368.575806 558.018738,370.713928 
	C558.041382,373.042603 556.010498,373.218170 554.397278,373.114685 
	C550.016479,372.833832 549.086487,375.133087 549.245422,378.950836 
	C549.466492,384.259796 549.311646,389.584198 549.324707,394.902008 
	C549.346252,403.642151 550.054321,404.343750 558.634644,403.885040 
	C558.708069,404.481476 559.033875,405.205231 558.820251,405.692535 
	C556.963379,409.929108 551.837219,411.960052 545.040649,411.249908 
	C539.674622,410.689240 536.441162,408.078308 535.627075,403.246826 
	C534.265564,395.165497 535.226013,386.991364 534.886047,378.865753 
	C534.785217,376.456818 535.326111,374.099030 531.926453,372.886353 
	C529.549927,372.038666 530.266479,370.477203 534.567627,368.538330 
z"/>
<path fill="#FFFFFF" opacity="1.000000" stroke="none" 
	d="
M456.571777,154.500671 
	C462.097443,166.756378 464.370209,179.951050 472.197449,191.843613 
	C465.971405,192.685913 460.062378,192.246231 453.793304,192.103470 
	C456.306366,187.195694 455.673584,181.319000 452.833405,179.250595 
	C450.772034,177.749359 441.372589,178.060043 439.914429,179.677597 
	C436.961487,182.953308 437.093018,187.431427 440.245667,190.952911 
	C436.710205,192.832047 433.178253,192.831375 429.207306,190.866180 
	C436.183258,183.185928 437.491089,172.923798 441.611664,163.938934 
	C443.066284,160.767242 444.081116,157.396744 445.422333,154.169205 
	C446.485199,151.611496 447.170715,148.746902 450.968384,148.678574 
	C454.897888,148.607864 455.311890,151.625549 456.571777,154.500671 
M446.545197,174.850449 
	C448.082733,174.633667 449.864899,175.368530 451.187317,173.589798 
	C450.320648,169.900360 449.470612,166.158325 446.973969,162.587677 
	C444.564453,165.552246 443.902557,168.807770 442.790741,171.816193 
	C441.766815,174.586838 443.850677,174.732086 446.545197,174.850449 
z"/>
<path fill="#FFFFFF" opacity="1.000000" stroke="none" 
	d="
M612.182312,173.444916 
	C612.563477,188.531570 603.480408,196.391403 590.964966,192.283646 
	C583.501892,189.834137 579.697815,182.981232 580.769531,173.917145 
	C581.685913,166.166718 587.543823,160.400940 595.179749,159.733521 
	C603.248352,159.028305 609.272217,163.170639 611.656067,171.073975 
	C611.847595,171.708740 611.976990,172.362198 612.182312,173.444916 
M596.528442,163.496445 
	C593.891724,163.864029 592.867493,165.932510 592.589539,168.050171 
	C591.853149,173.659485 591.724854,179.325760 592.766174,184.922455 
	C593.170715,187.096298 594.156799,189.349396 596.823853,189.227173 
	C599.470886,189.105850 600.286133,186.736038 600.553894,184.587311 
	C601.233887,179.130630 601.251160,173.633743 600.576111,168.168549 
	C600.322693,166.117294 599.382385,164.357117 596.528442,163.496445 
z"/>
<path fill="#FFFFFF" opacity="1.000000" stroke="none" 
	d="
M617.162231,160.926453 
	C620.684448,160.926147 624.552612,156.593384 626.701294,162.384415 
	C628.117615,161.713898 629.415955,160.972366 630.800537,160.467026 
	C635.324585,158.815765 639.621338,160.254684 640.849182,164.022568 
	C641.994690,167.538177 641.295532,170.684967 637.689697,172.483871 
	C634.342773,174.153625 631.615540,172.467926 629.175781,167.413849 
	C625.055603,172.066177 625.229492,184.157135 629.513000,190.858200 
	C625.951660,192.665039 617.478882,192.821732 612.903992,191.165359 
	C616.935730,183.604095 616.867920,168.556839 612.734985,163.173843 
	C613.341064,161.090744 615.413330,161.673721 617.162231,160.926453 
z"/>
<path fill="#FFFFFF" opacity="1.000000" stroke="none" 
	d="
M468.083679,362.886108 
	C470.405487,355.745575 476.143890,351.925140 481.678284,348.126740 
	C483.974792,346.550598 486.606689,348.273254 488.199341,350.343781 
	C490.143433,352.871185 487.761566,354.321564 486.229797,355.654755 
	C481.903107,359.420441 476.586365,361.490479 471.458588,363.855011 
	C470.332764,364.374176 469.176117,364.206757 468.083679,362.886108 
z"/>
<path fill="#FFFFFF" opacity="1.000000" stroke="none" 
	d="
M574.424927,157.635971 
	C570.629028,158.918503 568.313171,157.333847 566.657654,154.535034 
	C565.417236,152.437881 565.920044,150.357468 567.372131,148.549454 
	C569.054077,146.455139 571.372681,146.301346 573.683289,147.070389 
	C578.001892,148.507767 578.455017,153.176666 574.424927,157.635971 
z"/>
</svg>